# xmcd
#
# Track frame offsets:
#	183
#	11493
#	25478
#	36343
#	48400
#	59915
#	69358
#	84088
#	95355
#	105435
#	116893
#	128183
#
# Disc length: 1840 seconds
#
# Revision: 0
# Processed by: cddbd v1.5.1PL2 Copyright (c) Steve Scherf et al.
# Submitted via: audiograbber 1.83.01
#
DISCID=9e072e0c
DTITLE=Isley Brothers - Twist And Shout - The Collection
DYEAR=1988
DGENRE=Blues
TTITLE0=Twist And Shout
TTITLE1=Don't You Feel
TTITLE2=Hod On Baby
TTITLE3=Time After Time
TTITLE4=Twisting With Linda
TTITLE5=I Say Love
TTITLE6=Right Now
TTITLE7=Spanish Twist
TTITLE8=The Drag
TTITLE9=Don't Be Jealous
TTITLE10=This Is The End
TTITLE11=Rockin McDonald
EXTD=
EXTT0=
EXTT1=
EXTT2=
EXTT3=
EXTT4=
EXTT5=
EXTT6=
EXTT7=
EXTT8=
EXTT9=
EXTT10=
EXTT11=
PLAYORDER=
